# Wavefront OBJ file automatically generated by Tiled2Unity

# Vertices (Count = 574)
v -53.44 -1.28 0
v -54.08 -1.28 0
v -54.08 0 0
v -53.44 0 0
v -49.28 -1.92 0
v -49.92 -1.92 0
v -49.92 -0.64 0
v -49.28 -0.64 0
v -37.76 -2.56 0
v -38.4 -2.56 0
v -38.4 -1.28 0
v -37.76 -1.28 0
v -42.56 -2.56 0
v -43.2 -2.56 0
v -43.2 -1.28 0
v -42.56 -1.28 0
v -1.92 -3.2 0
v -2.56 -3.2 0
v -2.56 -1.92 0
v -1.92 -1.92 0
v -4.16 -3.2 0
v -4.8 -3.2 0
v -4.8 -1.92 0
v -4.16 -1.92 0
v -46.72 -3.2 0
v -47.36 -3.2 0
v -47.36 -1.92 0
v -46.72 -1.92 0
v -62.4 -3.84 0
v -63.04 -3.84 0
v -63.04 -2.56 0
v -62.4 -2.56 0
v -7.68 -5.12 0
v -8.32 -5.12 0
v -8.32 -3.84 0
v -7.68 -3.84 0
v -12.8 -5.12 0
v -13.44 -5.12 0
v -13.44 -3.84 0
v -12.8 -3.84 0
v -30.4 -5.12 0
v -31.04 -5.12 0
v -31.04 -3.84 0
v -30.4 -3.84 0
v -21.44 -6.4 0
v -22.08 -6.4 0
v -22.08 -5.12 0
v -21.44 -5.12 0
v -43.2 -8.96 0
v -43.84 -8.96 0
v -43.84 -7.68 0
v -43.2 -7.68 0
v -48.32 -8.96 0
v -48.96 -8.96 0
v -48.96 -7.68 0
v -48.32 -7.68 0
v -0.96 -9.28 0
v -1.6 -9.28 0
v -1.6 -8 0
v -0.96 -8 0
v -39.68 -9.599999 0
v -40.32 -9.599999 0
v -40.32 -8.32 0
v -39.68 -8.32 0
v -31.04 -10.88 0
v -31.68 -10.88 0
v -31.68 -9.599999 0
v -31.04 -9.599999 0
v -28.48 -12.16 0
v -29.12 -12.16 0
v -29.12 -10.88 0
v -28.48 -10.88 0
v -25.92 -13.44 0
v -26.56 -13.44 0
v -26.56 -12.16 0
v -25.92 -12.16 0
v -48.32 -14.08 0
v -48.96 -14.08 0
v -48.96 -12.8 0
v -48.32 -12.8 0
v -22.08 -14.72 0
v -22.72 -14.72 0
v -22.72 -13.44 0
v -22.08 -13.44 0
v -18.56 -15.36 0
v -19.2 -15.36 0
v -19.2 -14.08 0
v -18.56 -14.08 0
v -55.36 -1.28 0
v -55.36 0 0
v -56.64 -1.28 0
v -56.64 0 0
v -57.92 -1.28 0
v -57.92 0 0
v -48.64 -3.2 0
v -48.64 -1.92 0
v -45.12 -8.96 0
v -45.12 -7.68 0
v -24 -14.72 0
v -24 -13.44 0
v -44.48 -14.72 0
v -45.76 -14.72 0
v -45.76 -13.44 0
v -44.48 -13.44 0
v -14.08 -15.36 0
v -15.36 -15.36 0
v -15.36 -14.08 0
v -14.08 -14.08 0
v -58.56 -1.28 0
v -58.56 0 0
v -51.2 -1.92 0
v -51.84 -1.92 0
v -51.84 -0.64 0
v -51.2 -0.64 0
v -39.68 -2.56 0
v -40.32 -2.56 0
v -40.32 -1.28 0
v -39.68 -1.28 0
v -45.76 -2.56 0
v -46.4 -2.56 0
v -46.4 -1.28 0
v -45.76 -1.28 0
v -60.48 -2.56 0
v -61.12 -2.56 0
v -61.12 -1.28 0
v -60.48 -1.28 0
v -3.2 -3.2 0
v -3.2 -1.92 0
v -5.44 -3.2 0
v -5.44 -1.92 0
v -36.16 -3.84 0
v -36.8 -3.84 0
v -36.8 -2.56 0
v -36.16 -2.56 0
v -40.96 -3.84 0
v -41.6 -3.84 0
v -41.6 -2.56 0
v -40.96 -2.56 0
v -6.08 -4.48 0
v -6.72 -4.48 0
v -6.72 -3.2 0
v -6.08 -3.2 0
v -10.88 -5.12 0
v -11.52 -5.12 0
v -11.52 -3.84 0
v -10.88 -3.84 0
v -19.84 -6.4 0
v -20.48 -6.4 0
v -20.48 -5.12 0
v -19.84 -5.12 0
v -22.72 -6.4 0
v -22.72 -5.12 0
v -46.4 -8.96 0
v -47.04 -8.96 0
v -47.04 -7.68 0
v -46.4 -7.68 0
v -5.44 -9.28 0
v -6.08 -9.28 0
v -6.08 -8 0
v -5.44 -8 0
v -41.6 -9.599999 0
v -42.24 -9.599999 0
v -42.24 -8.32 0
v -41.6 -8.32 0
v -38.08 -10.88 0
v -38.72 -10.88 0
v -38.72 -9.599999 0
v -38.08 -9.599999 0
v -46.4 -14.72 0
v -46.4 -13.44 0
v -16.64 -15.36 0
v -17.28 -15.36 0
v -17.28 -14.08 0
v -16.64 -14.08 0
v -20.48 -15.36 0
v -21.12 -15.36 0
v -21.12 -14.08 0
v -20.48 -14.08 0
v -44.48 -2.56 0
v -44.48 -1.28 0
v -59.2 -2.56 0
v -59.2 -1.28 0
v -64.32 -3.84 0
v -64.32 -2.56 0
v 0 -4.48 0
v -1.28 -4.48 0
v -1.28 -3.2 0
v 0 -3.2 0
v -9.599999 -5.12 0
v -9.599999 -3.84 0
v -14.72 -5.12 0
v -14.72 -3.84 0
v -16 -5.12 0
v -16 -3.84 0
v -17.28 -5.12 0
v -17.28 -3.84 0
v -32.32 -5.12 0
v -32.32 -3.84 0
v -33.6 -5.12 0
v -33.6 -3.84 0
v -28.48 -6.4 0
v -29.76 -6.4 0
v -29.76 -5.12 0
v -28.48 -5.12 0
v -55.36 -6.4 0
v -56.64 -6.4 0
v -56.64 -5.12 0
v -55.36 -5.12 0
v -57.92 -6.4 0
v -57.92 -5.12 0
v -59.2 -6.4 0
v -59.2 -5.12 0
v -23.36 -7.68 0
v -24.64 -7.68 0
v -24.64 -6.4 0
v -23.36 -6.4 0
v -25.92 -7.68 0
v -25.92 -6.4 0
v -51.52 -7.68 0
v -52.8 -7.68 0
v -52.8 -6.4 0
v -51.52 -6.4 0
v -2.88 -9.28 0
v -2.88 -8 0
v -4.16 -9.28 0
v -4.16 -8 0
v -34.24 -9.599999 0
v -35.52 -9.599999 0
v -35.52 -8.32 0
v -34.24 -8.32 0
v -30.4 -12.16 0
v -30.4 -10.88 0
v -27.84 -13.44 0
v -27.84 -12.16 0
v -50.24 -14.08 0
v -50.24 -12.8 0
v -25.28 -14.72 0
v -25.28 -13.44 0
v -12.8 -15.36 0
v -12.8 -14.08 0
v 0 -19.2 0
v -1.28 -19.2 0
v -1.28 -17.92 0
v 0 -17.92 0
v -2.56 -19.2 0
v -2.56 -17.92 0
v -3.84 -19.2 0
v -3.84 -17.92 0
v -5.12 -19.2 0
v -5.12 -17.92 0
v -51.2 -2.56 0
v -51.84 -2.56 0
v -45.76 -3.2 0
v -46.4 -3.2 0
v -60.48 -3.2 0
v -61.12 -3.2 0
v -49.92 -3.84 0
v -50.56 -3.84 0
v -50.56 -3.2 0
v -49.92 -3.2 0
v -40.96 -4.48 0
v -41.6 -4.48 0
v -2.56 -5.12 0
v -3.2 -5.12 0
v -3.2 -4.48 0
v -2.56 -4.48 0
v -6.08 -5.12 0
v -6.72 -5.12 0
v -10.88 -5.76 0
v -11.52 -5.76 0
v -36.16 -5.76 0
v -36.8 -5.76 0
v -36.8 -5.12 0
v -36.16 -5.12 0
v -19.84 -7.04 0
v -20.48 -7.04 0
v -32.32 -7.04 0
v -32.96 -7.04 0
v -32.96 -6.4 0
v -32.32 -6.4 0
v -29.76 -8.32 0
v -30.4 -8.32 0
v -30.4 -7.68 0
v -29.76 -7.68 0
v -46.4 -9.599999 0
v -47.04 -9.599999 0
v -5.44 -9.92 0
v -6.08 -9.92 0
v -41.6 -10.24 0
v -42.24 -10.24 0
v -45.76 -15.36 0
v -46.4 -15.36 0
v -20.48 -16 0
v -21.12 -16 0
v -53.44 -2.56 0
v -54.08 -2.56 0
v -4.16 -4.48 0
v -4.8 -4.48 0
v -12.8 -6.4 0
v -13.44 -6.4 0
v -21.44 -7.68 0
v -22.08 -7.68 0
v -50.88 -11.52 0
v -51.52 -11.52 0
v -51.52 -10.24 0
v -50.88 -10.24 0
v -50.88 -12.8 0
v -51.52 -12.8 0
v -48.32 -15.36 0
v -48.96 -15.36 0
v -55.36 -2.56 0
v -34.24 -12.16 0
v -35.52 -12.16 0
v -35.52 -10.88 0
v -34.24 -10.88 0
v -29.12 -14.72 0
v -30.4 -14.72 0
v -30.4 -13.44 0
v -29.12 -13.44 0
v -31.68 -14.72 0
v -31.68 -13.44 0
v -15.36 -16.64 0
v -16.64 -16.64 0
v -11.52 -17.92 0
v -12.8 -17.92 0
v -12.8 -16.64 0
v -11.52 -16.64 0
v -56.64 -2.56 0
v -57.92 -2.56 0
v -63.04 -5.12 0
v -64.32 -5.12 0
v -14.72 -6.4 0
v -16 -6.4 0
v -17.28 -6.4 0
v -31.04 -6.4 0
v -61.76 -6.4 0
v -63.04 -6.4 0
v -61.76 -5.12 0
v -64.32 -6.4 0
v -28.48 -7.68 0
v -55.36 -7.68 0
v -56.64 -7.68 0
v -57.92 -7.68 0
v -59.2 -7.68 0
v -60.48 -7.68 0
v -60.48 -6.4 0
v -61.76 -7.68 0
v -63.04 -7.68 0
v -64.32 -7.68 0
v -51.52 -8.96 0
v -52.8 -8.96 0
v -54.08 -8.96 0
v -54.08 -7.68 0
v -55.36 -8.96 0
v -56.64 -8.96 0
v -57.92 -8.96 0
v -59.2 -8.96 0
v -60.48 -8.96 0
v -61.76 -8.96 0
v -63.04 -8.96 0
v -64.32 -8.96 0
v -52.8 -10.24 0
v -54.08 -10.24 0
v -55.36 -10.24 0
v -56.64 -10.24 0
v -57.92 -10.24 0
v -59.2 -10.24 0
v -60.48 -10.24 0
v -61.76 -10.24 0
v -63.04 -10.24 0
v -64.32 -10.24 0
v -52.8 -11.52 0
v -54.08 -11.52 0
v -55.36 -11.52 0
v -56.64 -11.52 0
v -57.92 -11.52 0
v -59.2 -11.52 0
v -60.48 -11.52 0
v -61.76 -11.52 0
v -63.04 -11.52 0
v -64.32 -11.52 0
v -31.68 -12.16 0
v -32.96 -12.16 0
v -32.96 -10.88 0
v -36.8 -12.16 0
v -36.8 -10.88 0
v -38.08 -12.16 0
v -52.8 -12.8 0
v -54.08 -12.8 0
v -55.36 -12.8 0
v -56.64 -12.8 0
v -57.92 -12.8 0
v -59.2 -12.8 0
v -60.48 -12.8 0
v -61.76 -12.8 0
v -63.04 -12.8 0
v -64.32 -12.8 0
v -32.96 -13.44 0
v -34.24 -13.44 0
v -35.52 -13.44 0
v -36.8 -13.44 0
v -38.08 -13.44 0
v -39.36 -13.44 0
v -39.36 -12.16 0
v -51.52 -14.08 0
v -52.8 -14.08 0
v -54.08 -14.08 0
v -55.36 -14.08 0
v -56.64 -14.08 0
v -57.92 -14.08 0
v -59.2 -14.08 0
v -60.48 -14.08 0
v -61.76 -14.08 0
v -63.04 -14.08 0
v -64.32 -14.08 0
v -26.56 -14.72 0
v -27.84 -14.72 0
v -32.96 -14.72 0
v -34.24 -14.72 0
v -35.52 -14.72 0
v -36.8 -14.72 0
v -38.08 -14.72 0
v -39.36 -14.72 0
v -40.64 -14.72 0
v -40.64 -13.44 0
v -41.92 -14.72 0
v -41.92 -13.44 0
v -50.24 -15.36 0
v -51.52 -15.36 0
v -52.8 -15.36 0
v -54.08 -15.36 0
v -55.36 -15.36 0
v -56.64 -15.36 0
v -57.92 -15.36 0
v -59.2 -15.36 0
v -60.48 -15.36 0
v -61.76 -15.36 0
v -63.04 -15.36 0
v -64.32 -15.36 0
v -14.08 -16.64 0
v -10.24 -17.92 0
v -10.24 -16.64 0
v -14.08 -17.92 0
v -15.36 -17.92 0
v -16.64 -17.92 0
v -7.68 -19.2 0
v -8.96 -19.2 0
v -8.96 -17.92 0
v -7.68 -17.92 0
v -10.24 -19.2 0
v -11.52 -19.2 0
v -12.8 -19.2 0
v -14.08 -19.2 0
v -15.36 -19.2 0
v -16.64 -19.2 0
v -39.68 -3.84 0
v -39.36 -10.88 0
v -37.76 -3.2 0
v -38.4 -3.2 0
v -42.56 -3.2 0
v -43.2 -3.2 0
v -53.44 -3.2 0
v -54.08 -3.2 0
v -46.72 -3.84 0
v -47.36 -3.84 0
v -39.04 -4.48 0
v -39.68 -4.48 0
v -39.04 -3.84 0
v -4.16 -5.12 0
v -4.8 -5.12 0
v -7.68 -5.76 0
v -8.32 -5.76 0
v -12.8 -7.04 0
v -13.44 -7.04 0
v -21.44 -8.32 0
v -22.08 -8.32 0
v -43.2 -9.599999 0
v -43.84 -9.599999 0
v -48.32 -9.599999 0
v -48.96 -9.599999 0
v -0.96 -9.92 0
v -1.6 -9.92 0
v -39.68 -10.24 0
v -40.32 -10.24 0
v -22.08 -15.36 0
v -22.72 -15.36 0
v -18.56 -16 0
v -19.2 -16 0
v -48.32 -16 0
v -48.96 -16 0
v -44.48 -3.2 0
v -55.36 -3.2 0
v -56.64 -3.2 0
v -57.92 -3.2 0
v -59.2 -3.2 0
v -48.64 -3.84 0
v 0 -5.12 0
v -1.28 -5.12 0
v -9.599999 -5.76 0
v -33.6 -5.76 0
v -34.88 -5.76 0
v -34.88 -5.12 0
v -14.72 -7.04 0
v -16 -7.04 0
v -17.28 -7.04 0
v -18.56 -7.04 0
v -18.56 -6.4 0
v -31.04 -7.04 0
v -23.36 -8.32 0
v -24.64 -8.32 0
v -25.92 -8.32 0
v -27.2 -8.32 0
v -27.2 -7.68 0
v -28.48 -8.32 0
v -45.12 -9.599999 0
v -50.24 -9.599999 0
v -50.24 -8.96 0
v -2.88 -9.92 0
v -4.16 -9.92 0
v -24 -15.36 0
v -25.28 -15.36 0
v -26.56 -15.36 0
v -27.84 -15.36 0
v -29.12 -15.36 0
v -30.4 -15.36 0
v -31.68 -15.36 0
v -32.96 -15.36 0
v -34.24 -15.36 0
v -35.52 -15.36 0
v -36.8 -15.36 0
v -38.08 -15.36 0
v -39.36 -15.36 0
v -40.64 -15.36 0
v -41.92 -15.36 0
v -43.2 -15.36 0
v -43.2 -14.72 0
v -44.48 -15.36 0
v -50.24 -16 0
v -51.52 -16 0
v -52.8 -16 0
v -54.08 -16 0
v -55.36 -16 0
v -56.64 -16 0
v -57.92 -16 0
v -59.2 -16 0
v -60.48 -16 0
v -61.76 -16 0
v -63.04 -16 0
v -64.32 -16 0
v -61.76 -3.84 0
v -51.2 -3.2 0
v -33.6 -6.4 0
v -31.04 -7.68 0
v -38.4 -3.84 0
v -50.24 -10.24 0
v -17.28 -16.64 0
v -17.28 -17.92 0
v -17.28 -19.2 0
v -33.6 -2.56 0
v -59.2 -3.84 0
v -25.92 -5.12 0
v -52.8 -5.12 0
v -48.96 -6.4 0
v -31.68 -8.32 0
v -10.24 -14.08 0
v -10.24 -15.36 0
v -7.68 -15.36 0
v -7.68 -16.64 0
v -5.12 -16.64 0
v -19.84 -3.84 0
v -38.08 -8.32 0
v -41.92 -10.88 0
v -44.48 -12.16 0
v -41.92 -12.16 0

# Texture cooridinates (Count = 4)
vt 0.0001220703 0.0001220703
vt 0.9998779 0.0001220703
vt 0.9998779 0.9998779
vt 0.0001220703 0.9998779

# Normal
vn 0 0 -1

# Groups (Count = 1)

g mesh_0001
f 1/1/1 2/2/1 3/3/1 4/4/1
f 5/1/1 6/2/1 7/3/1 8/4/1
f 9/1/1 10/2/1 11/3/1 12/4/1
f 13/1/1 14/2/1 15/3/1 16/4/1
f 17/1/1 18/2/1 19/3/1 20/4/1
f 21/1/1 22/2/1 23/3/1 24/4/1
f 25/1/1 26/2/1 27/3/1 28/4/1
f 29/1/1 30/2/1 31/3/1 32/4/1
f 33/1/1 34/2/1 35/3/1 36/4/1
f 37/1/1 38/2/1 39/3/1 40/4/1
f 41/1/1 42/2/1 43/3/1 44/4/1
f 45/1/1 46/2/1 47/3/1 48/4/1
f 49/1/1 50/2/1 51/3/1 52/4/1
f 53/1/1 54/2/1 55/3/1 56/4/1
f 57/1/1 58/2/1 59/3/1 60/4/1
f 61/1/1 62/2/1 63/3/1 64/4/1
f 65/1/1 66/2/1 67/3/1 68/4/1
f 69/1/1 70/2/1 71/3/1 72/4/1
f 73/1/1 74/2/1 75/3/1 76/4/1
f 77/1/1 78/2/1 79/3/1 80/4/1
f 81/1/1 82/2/1 83/3/1 84/4/1
f 85/1/1 86/2/1 87/3/1 88/4/1

g mesh_0002
f 2/1/1 89/2/1 90/3/1 3/4/1
f 89/1/1 91/2/1 92/3/1 90/4/1
f 91/1/1 93/2/1 94/3/1 92/4/1
f 26/1/1 95/2/1 96/3/1 27/4/1
f 50/1/1 97/2/1 98/3/1 51/4/1
f 82/1/1 99/2/1 100/3/1 83/4/1
f 101/1/1 102/2/1 103/3/1 104/4/1
f 105/1/1 106/2/1 107/3/1 108/4/1

g mesh_0003
f 93/1/1 109/2/1 110/3/1 94/4/1
f 111/1/1 112/2/1 113/3/1 114/4/1
f 115/1/1 116/2/1 117/3/1 118/4/1
f 119/1/1 120/2/1 121/3/1 122/4/1
f 123/1/1 124/2/1 125/3/1 126/4/1
f 18/1/1 127/2/1 128/3/1 19/4/1
f 22/1/1 129/2/1 130/3/1 23/4/1
f 131/1/1 132/2/1 133/3/1 134/4/1
f 135/1/1 136/2/1 137/3/1 138/4/1
f 139/1/1 140/2/1 141/3/1 142/4/1
f 143/1/1 144/2/1 145/3/1 146/4/1
f 147/1/1 148/2/1 149/3/1 150/4/1
f 46/1/1 151/2/1 152/3/1 47/4/1
f 153/1/1 154/2/1 155/3/1 156/4/1
f 157/1/1 158/2/1 159/3/1 160/4/1
f 161/1/1 162/2/1 163/3/1 164/4/1
f 165/1/1 166/2/1 167/3/1 168/4/1
f 102/1/1 169/2/1 170/3/1 103/4/1
f 171/1/1 172/2/1 173/3/1 174/4/1
f 175/1/1 176/2/1 177/3/1 178/4/1

g mesh_0004
f 6/1/1 111/2/1 114/3/1 7/4/1
f 10/1/1 115/2/1 118/3/1 11/4/1
f 14/1/1 179/2/1 180/3/1 15/4/1
f 179/1/1 119/2/1 122/3/1 180/4/1
f 181/1/1 123/2/1 126/3/1 182/4/1
f 30/1/1 183/2/1 184/3/1 31/4/1
f 185/1/1 186/2/1 187/3/1 188/4/1
f 34/1/1 189/2/1 190/3/1 35/4/1
f 189/1/1 143/2/1 146/3/1 190/4/1
f 38/1/1 191/2/1 192/3/1 39/4/1
f 191/1/1 193/2/1 194/3/1 192/4/1
f 193/1/1 195/2/1 196/3/1 194/4/1
f 42/1/1 197/2/1 198/3/1 43/4/1
f 197/1/1 199/2/1 200/3/1 198/4/1
f 201/1/1 202/2/1 203/3/1 204/4/1
f 205/1/1 206/2/1 207/3/1 208/4/1
f 206/1/1 209/2/1 210/3/1 207/4/1
f 209/1/1 211/2/1 212/3/1 210/4/1
f 213/1/1 214/2/1 215/3/1 216/4/1
f 214/1/1 217/2/1 218/3/1 215/4/1
f 219/1/1 220/2/1 221/3/1 222/4/1
f 97/1/1 153/2/1 156/3/1 98/4/1
f 58/1/1 223/2/1 224/3/1 59/4/1
f 223/1/1 225/2/1 226/3/1 224/4/1
f 225/1/1 157/2/1 160/3/1 226/4/1
f 227/1/1 228/2/1 229/3/1 230/4/1
f 62/1/1 161/2/1 164/3/1 63/4/1
f 70/1/1 231/2/1 232/3/1 71/4/1
f 74/1/1 233/2/1 234/3/1 75/4/1
f 78/1/1 235/2/1 236/3/1 79/4/1
f 99/1/1 237/2/1 238/3/1 100/4/1
f 239/1/1 105/2/1 108/3/1 240/4/1
f 106/1/1 171/2/1 174/3/1 107/4/1
f 86/1/1 175/2/1 178/3/1 87/4/1
f 241/1/1 242/2/1 243/3/1 244/4/1
f 242/1/1 245/2/1 246/3/1 243/4/1
f 245/1/1 247/2/1 248/3/1 246/4/1
f 247/1/1 249/2/1 250/3/1 248/4/1

g mesh_0005
f 251/1/1 252/2/1 112/3/1 111/4/1
f 253/1/1 254/2/1 120/3/1 119/4/1
f 255/1/1 256/2/1 124/3/1 123/4/1
f 257/1/1 258/2/1 259/3/1 260/4/1
f 261/1/1 262/2/1 136/3/1 135/4/1
f 263/1/1 264/2/1 265/3/1 266/4/1
f 267/1/1 268/2/1 140/3/1 139/4/1
f 269/1/1 270/2/1 144/3/1 143/4/1
f 271/1/1 272/2/1 273/3/1 274/4/1
f 275/1/1 276/2/1 148/3/1 147/4/1
f 277/1/1 278/2/1 279/3/1 280/4/1
f 281/1/1 282/2/1 283/3/1 284/4/1
f 285/1/1 286/2/1 154/3/1 153/4/1
f 287/1/1 288/2/1 158/3/1 157/4/1
f 289/1/1 290/2/1 162/3/1 161/4/1
f 291/1/1 292/2/1 169/3/1 102/4/1
f 293/1/1 294/2/1 176/3/1 175/4/1

g mesh_0006
f 295/1/1 296/2/1 2/3/1 1/4/1
f 297/1/1 298/2/1 22/3/1 21/4/1
f 299/1/1 300/2/1 38/3/1 37/4/1
f 301/1/1 302/2/1 46/3/1 45/4/1
f 303/1/1 304/2/1 305/3/1 306/4/1
f 307/1/1 308/2/1 304/3/1 303/4/1
f 309/1/1 310/2/1 78/3/1 77/4/1

g mesh_0007
f 296/1/1 311/2/1 89/3/1 2/4/1
f 312/1/1 313/2/1 314/3/1 315/4/1
f 316/1/1 317/2/1 318/3/1 319/4/1
f 317/1/1 320/2/1 321/3/1 318/4/1
f 322/1/1 323/2/1 171/3/1 106/4/1
f 324/1/1 325/2/1 326/3/1 327/4/1

g mesh_0008
f 311/1/1 328/2/1 91/3/1 89/4/1
f 328/1/1 329/2/1 93/3/1 91/4/1
f 330/1/1 331/2/1 183/3/1 30/4/1
f 300/1/1 332/2/1 191/3/1 38/4/1
f 332/1/1 333/2/1 193/3/1 191/4/1
f 333/1/1 334/2/1 195/3/1 193/4/1
f 335/1/1 280/2/1 197/3/1 42/4/1
f 336/1/1 337/2/1 330/3/1 338/4/1
f 337/1/1 339/2/1 331/3/1 330/4/1
f 340/1/1 284/2/1 202/3/1 201/4/1
f 341/1/1 342/2/1 206/3/1 205/4/1
f 342/1/1 343/2/1 209/3/1 206/4/1
f 343/1/1 344/2/1 211/3/1 209/4/1
f 344/1/1 345/2/1 346/3/1 211/4/1
f 345/1/1 347/2/1 336/3/1 346/4/1
f 347/1/1 348/2/1 337/3/1 336/4/1
f 348/1/1 349/2/1 339/3/1 337/4/1
f 350/1/1 351/2/1 220/3/1 219/4/1
f 351/1/1 352/2/1 353/3/1 220/4/1
f 352/1/1 354/2/1 341/3/1 353/4/1
f 354/1/1 355/2/1 342/3/1 341/4/1
f 355/1/1 356/2/1 343/3/1 342/4/1
f 356/1/1 357/2/1 344/3/1 343/4/1
f 357/1/1 358/2/1 345/3/1 344/4/1
f 358/1/1 359/2/1 347/3/1 345/4/1
f 359/1/1 360/2/1 348/3/1 347/4/1
f 360/1/1 361/2/1 349/3/1 348/4/1
f 305/1/1 362/2/1 351/3/1 350/4/1
f 362/1/1 363/2/1 352/3/1 351/4/1
f 363/1/1 364/2/1 354/3/1 352/4/1
f 364/1/1 365/2/1 355/3/1 354/4/1
f 365/1/1 366/2/1 356/3/1 355/4/1
f 366/1/1 367/2/1 357/3/1 356/4/1
f 367/1/1 368/2/1 358/3/1 357/4/1
f 368/1/1 369/2/1 359/3/1 358/4/1
f 369/1/1 370/2/1 360/3/1 359/4/1
f 370/1/1 371/2/1 361/3/1 360/4/1
f 315/1/1 314/2/1 228/3/1 227/4/1
f 304/1/1 372/2/1 362/3/1 305/4/1
f 372/1/1 373/2/1 363/3/1 362/4/1
f 373/1/1 374/2/1 364/3/1 363/4/1
f 374/1/1 375/2/1 365/3/1 364/4/1
f 375/1/1 376/2/1 366/3/1 365/4/1
f 376/1/1 377/2/1 367/3/1 366/4/1
f 377/1/1 378/2/1 368/3/1 367/4/1
f 378/1/1 379/2/1 369/3/1 368/4/1
f 379/1/1 380/2/1 370/3/1 369/4/1
f 380/1/1 381/2/1 371/3/1 370/4/1
f 382/1/1 383/2/1 384/3/1 66/4/1
f 383/1/1 312/2/1 315/3/1 384/4/1
f 313/1/1 385/2/1 386/3/1 314/4/1
f 385/1/1 387/2/1 165/3/1 386/4/1
f 308/1/1 388/2/1 372/3/1 304/4/1
f 388/1/1 389/2/1 373/3/1 372/4/1
f 389/1/1 390/2/1 374/3/1 373/4/1
f 390/1/1 391/2/1 375/3/1 374/4/1
f 391/1/1 392/2/1 376/3/1 375/4/1
f 392/1/1 393/2/1 377/3/1 376/4/1
f 393/1/1 394/2/1 378/3/1 377/4/1
f 394/1/1 395/2/1 379/3/1 378/4/1
f 395/1/1 396/2/1 380/3/1 379/4/1
f 396/1/1 397/2/1 381/3/1 380/4/1
f 319/1/1 318/2/1 231/3/1 70/4/1
f 318/1/1 321/2/1 382/3/1 231/4/1
f 321/1/1 398/2/1 383/3/1 382/4/1
f 398/1/1 399/2/1 312/3/1 383/4/1
f 399/1/1 400/2/1 313/3/1 312/4/1
f 400/1/1 401/2/1 385/3/1 313/4/1
f 401/1/1 402/2/1 387/3/1 385/4/1
f 402/1/1 403/2/1 404/3/1 387/4/1
f 405/1/1 406/2/1 388/3/1 308/4/1
f 406/1/1 407/2/1 389/3/1 388/4/1
f 407/1/1 408/2/1 390/3/1 389/4/1
f 408/1/1 409/2/1 391/3/1 390/4/1
f 409/1/1 410/2/1 392/3/1 391/4/1
f 410/1/1 411/2/1 393/3/1 392/4/1
f 411/1/1 412/2/1 394/3/1 393/4/1
f 412/1/1 413/2/1 395/3/1 394/4/1
f 413/1/1 414/2/1 396/3/1 395/4/1
f 414/1/1 415/2/1 397/3/1 396/4/1
f 416/1/1 417/2/1 233/3/1 74/4/1
f 417/1/1 316/2/1 319/3/1 233/4/1
f 320/1/1 418/2/1 398/3/1 321/4/1
f 418/1/1 419/2/1 399/3/1 398/4/1
f 419/1/1 420/2/1 400/3/1 399/4/1
f 420/1/1 421/2/1 401/3/1 400/4/1
f 421/1/1 422/2/1 402/3/1 401/4/1
f 422/1/1 423/2/1 403/3/1 402/4/1
f 423/1/1 424/2/1 425/3/1 403/4/1
f 424/1/1 426/2/1 427/3/1 425/4/1
f 310/1/1 428/2/1 235/3/1 78/4/1
f 428/1/1 429/2/1 405/3/1 235/4/1
f 429/1/1 430/2/1 406/3/1 405/4/1
f 430/1/1 431/2/1 407/3/1 406/4/1
f 431/1/1 432/2/1 408/3/1 407/4/1
f 432/1/1 433/2/1 409/3/1 408/4/1
f 433/1/1 434/2/1 410/3/1 409/4/1
f 434/1/1 435/2/1 411/3/1 410/4/1
f 435/1/1 436/2/1 412/3/1 411/4/1
f 436/1/1 437/2/1 413/3/1 412/4/1
f 437/1/1 438/2/1 414/3/1 413/4/1
f 438/1/1 439/2/1 415/3/1 414/4/1
f 326/1/1 440/2/1 105/3/1 239/4/1
f 440/1/1 322/2/1 106/3/1 105/4/1
f 441/1/1 324/2/1 327/3/1 442/4/1
f 325/1/1 443/2/1 440/3/1 326/4/1
f 443/1/1 444/2/1 322/3/1 440/4/1
f 444/1/1 445/2/1 323/3/1 322/4/1
f 446/1/1 447/2/1 448/3/1 449/4/1
f 447/1/1 450/2/1 441/3/1 448/4/1
f 450/1/1 451/2/1 324/3/1 441/4/1
f 451/1/1 452/2/1 325/3/1 324/4/1
f 452/1/1 453/2/1 443/3/1 325/4/1
f 453/1/1 454/2/1 444/3/1 443/4/1
f 454/1/1 455/2/1 445/3/1 444/4/1

g mesh_0009
f 329/1/1 181/2/1 182/3/1 93/4/1
f 456/1/1 135/2/1 138/3/1 115/4/1
f 298/1/1 139/2/1 142/3/1 22/4/1
f 302/1/1 213/2/1 216/3/1 46/4/1
f 387/1/1 404/2/1 457/3/1 165/4/1

g mesh_0010
f 458/1/1 459/2/1 10/3/1 9/4/1
f 460/1/1 461/2/1 14/3/1 13/4/1
f 462/1/1 463/2/1 296/3/1 295/4/1
f 464/1/1 465/2/1 26/3/1 25/4/1
f 466/1/1 467/2/1 456/3/1 468/4/1
f 469/1/1 470/2/1 298/3/1 297/4/1
f 471/1/1 472/2/1 34/3/1 33/4/1
f 473/1/1 474/2/1 300/3/1 299/4/1
f 475/1/1 476/2/1 302/3/1 301/4/1
f 477/1/1 478/2/1 50/3/1 49/4/1
f 479/1/1 480/2/1 54/3/1 53/4/1
f 481/1/1 482/2/1 58/3/1 57/4/1
f 483/1/1 484/2/1 62/3/1 61/4/1
f 485/1/1 486/2/1 82/3/1 81/4/1
f 487/1/1 488/2/1 86/3/1 85/4/1
f 489/1/1 490/2/1 310/3/1 309/4/1

g mesh_0011
f 461/1/1 491/2/1 179/3/1 14/4/1
f 491/1/1 253/2/1 119/3/1 179/4/1
f 463/1/1 492/2/1 311/3/1 296/4/1
f 492/1/1 493/2/1 328/3/1 311/4/1
f 493/1/1 494/2/1 329/3/1 328/4/1
f 494/1/1 495/2/1 181/3/1 329/4/1
f 495/1/1 255/2/1 123/3/1 181/4/1
f 465/1/1 496/2/1 95/3/1 26/4/1
f 496/1/1 257/2/1 260/3/1 95/4/1
f 467/1/1 261/2/1 135/3/1 456/4/1
f 497/1/1 498/2/1 186/3/1 185/4/1
f 498/1/1 263/2/1 266/3/1 186/4/1
f 470/1/1 267/2/1 139/3/1 298/4/1
f 472/1/1 499/2/1 189/3/1 34/4/1
f 499/1/1 269/2/1 143/3/1 189/4/1
f 500/1/1 501/2/1 502/3/1 199/4/1
f 501/1/1 271/2/1 274/3/1 502/4/1
f 474/1/1 503/2/1 332/3/1 300/4/1
f 503/1/1 504/2/1 333/3/1 332/4/1
f 504/1/1 505/2/1 334/3/1 333/4/1
f 505/1/1 506/2/1 507/3/1 334/4/1
f 506/1/1 275/2/1 147/3/1 507/4/1
f 508/1/1 277/2/1 280/3/1 335/4/1
f 476/1/1 509/2/1 213/3/1 302/4/1
f 509/1/1 510/2/1 214/3/1 213/4/1
f 510/1/1 511/2/1 217/3/1 214/4/1
f 511/1/1 512/2/1 513/3/1 217/4/1
f 512/1/1 514/2/1 340/3/1 513/4/1
f 514/1/1 281/2/1 284/3/1 340/4/1
f 478/1/1 515/2/1 97/3/1 50/4/1
f 515/1/1 285/2/1 153/3/1 97/4/1
f 480/1/1 516/2/1 517/3/1 54/4/1
f 482/1/1 518/2/1 223/3/1 58/4/1
f 518/1/1 519/2/1 225/3/1 223/4/1
f 519/1/1 287/2/1 157/3/1 225/4/1
f 484/1/1 289/2/1 161/3/1 62/4/1
f 486/1/1 520/2/1 99/3/1 82/4/1
f 520/1/1 521/2/1 237/3/1 99/4/1
f 521/1/1 522/2/1 416/3/1 237/4/1
f 522/1/1 523/2/1 417/3/1 416/4/1
f 523/1/1 524/2/1 316/3/1 417/4/1
f 524/1/1 525/2/1 317/3/1 316/4/1
f 525/1/1 526/2/1 320/3/1 317/4/1
f 526/1/1 527/2/1 418/3/1 320/4/1
f 527/1/1 528/2/1 419/3/1 418/4/1
f 528/1/1 529/2/1 420/3/1 419/4/1
f 529/1/1 530/2/1 421/3/1 420/4/1
f 530/1/1 531/2/1 422/3/1 421/4/1
f 531/1/1 532/2/1 423/3/1 422/4/1
f 532/1/1 533/2/1 424/3/1 423/4/1
f 533/1/1 534/2/1 426/3/1 424/4/1
f 534/1/1 535/2/1 536/3/1 426/4/1
f 535/1/1 537/2/1 101/3/1 536/4/1
f 537/1/1 291/2/1 102/3/1 101/4/1
f 488/1/1 293/2/1 175/3/1 86/4/1
f 490/1/1 538/2/1 428/3/1 310/4/1
f 538/1/1 539/2/1 429/3/1 428/4/1
f 539/1/1 540/2/1 430/3/1 429/4/1
f 540/1/1 541/2/1 431/3/1 430/4/1
f 541/1/1 542/2/1 432/3/1 431/4/1
f 542/1/1 543/2/1 433/3/1 432/4/1
f 543/1/1 544/2/1 434/3/1 433/4/1
f 544/1/1 545/2/1 435/3/1 434/4/1
f 545/1/1 546/2/1 436/3/1 435/4/1
f 546/1/1 547/2/1 437/3/1 436/4/1
f 547/1/1 548/2/1 438/3/1 437/4/1
f 548/1/1 549/2/1 439/3/1 438/4/1

g mesh_0012
f 95/1/1 260/2/1 6/3/1 96/4/1
f 186/1/1 266/2/1 18/3/1 187/4/1
f 338/1/1 330/2/1 30/3/1 550/4/1
f 202/1/1 335/2/1 42/3/1 203/4/1
f 231/1/1 382/2/1 66/3/1 232/4/1
f 233/1/1 319/2/1 70/3/1 234/4/1
f 235/1/1 405/2/1 308/3/1 236/4/1
f 237/1/1 416/2/1 74/3/1 238/4/1

g mesh_0013
f 260/1/1 551/2/1 111/3/1 6/4/1
f 280/1/1 552/2/1 199/3/1 197/4/1
f 284/1/1 553/2/1 335/3/1 202/4/1

g mesh_0014
f 554/1/1 456/2/1 115/3/1 10/4/1
f 555/1/1 305/2/1 350/3/1 517/4/1

g mesh_0015
f 266/1/1 265/2/1 127/3/1 18/4/1
f 274/1/1 273/2/1 132/3/1 131/4/1
f 323/1/1 556/2/1 172/3/1 171/4/1
f 445/1/1 557/2/1 556/3/1 323/4/1
f 455/1/1 558/2/1 557/3/1 445/4/1

g mesh_0016
f 199/1/1 274/2/1 134/3/1 559/4/1
f 211/1/1 336/2/1 550/3/1 560/4/1
f 217/1/1 340/2/1 204/3/1 561/4/1
f 220/1/1 341/2/1 208/3/1 562/4/1
f 54/1/1 350/2/1 222/3/1 563/4/1
f 66/1/1 315/2/1 230/3/1 564/4/1
f 442/1/1 326/2/1 240/3/1 565/4/1
f 449/1/1 441/2/1 566/3/1 567/4/1
f 249/1/1 446/2/1 568/3/1 569/4/1

g mesh_0017
f 334/1/1 147/2/1 570/3/1 196/4/1
f 314/1/1 165/2/1 571/3/1 229/4/1
f 403/1/1 427/2/1 572/3/1 457/4/1
f 426/1/1 101/2/1 573/3/1 574/4/1

